<svg width="160" height="23" viewBox="0 0 160 23" fill="none" xmlns="http://www.w3.org/2000/svg">
<g clip-path="url(#clip0_2_6)">
<path d="M7.53906 1.07788H14.7741V2.27795H12.3721V19.2858H10.2176V2.27795H7.53906V1.07788Z" fill="white"/>
<path d="M25.0866 3.58145C25.1254 3.58145 25.1448 3.6918 25.1448 3.91251C25.1448 4.13321 25.14 4.35391 25.1303 4.57461V4.89532C24.3636 4.89532 23.6842 5.00567 23.0922 5.22637C22.5099 5.44017 21.9374 5.82985 21.3745 6.3954V19.2858H19.2054V3.76767H21.3745V5.49535C21.6268 4.88842 22.0684 4.41943 22.6992 4.08838C23.3397 3.75043 24.1355 3.58145 25.0866 3.58145Z" fill="white"/>
<path d="M29.7072 3.76768H31.8908V19.2858H29.7072V3.76768ZM29.7072 0.850281H31.8762V2.34001H29.7072V0.850281Z" fill="white"/>
<path d="M44.416 8.3093C44.416 7.09543 44.3432 6.34022 44.1976 6.04365C44.0618 5.74019 43.8968 5.48155 43.7027 5.26775C43.5086 5.05394 43.1883 4.94704 42.7419 4.94704C42.2955 4.94704 41.9655 4.96773 41.752 5.00911C41.2279 5.11256 40.8446 5.41258 40.6019 5.90916C40.3593 6.39885 40.238 7.20578 40.238 8.32998V14.4958C40.238 15.8131 40.3836 16.7442 40.6747 17.2891C40.9756 17.827 41.5385 18.096 42.3634 18.096C43.1883 18.096 43.7367 17.827 44.0084 17.2891C44.2801 16.7511 44.416 15.8028 44.416 14.4441V8.3093ZM40.238 4.95739C40.7524 4.08838 41.718 3.65387 43.1349 3.65387C44.1249 3.65387 44.8673 3.88837 45.3622 4.35736C45.8669 4.81945 46.1969 5.41948 46.3521 6.15745C46.5074 6.88852 46.5851 7.77133 46.5851 8.80585V14.3717C46.5851 14.3924 46.5851 14.4165 46.5851 14.4441C46.5851 16.3959 46.226 17.7236 45.5078 18.427C44.7896 19.1237 43.8094 19.4719 42.5672 19.4719C42.0723 19.4719 41.6064 19.3478 41.1697 19.0995C40.7427 18.8444 40.4321 18.534 40.238 18.1685V22.0273H38.069V3.76767H40.238V4.95739Z" fill="white"/>
<path d="M61.0377 3.9539L61.0523 4.37806C61.0523 5.12292 61.5957 6.44713 62.6827 8.35067C63.43 7.68856 64.0026 7.04027 64.4005 6.40575C64.8081 5.76434 65.0119 5.05051 65.0119 4.26425C65.0119 3.47801 64.8906 2.91936 64.6479 2.5883C64.4053 2.25035 63.8327 2.08138 62.9302 2.08138C61.7559 2.08138 61.1348 2.56072 61.0668 3.51939C61.0571 3.67112 61.0474 3.77112 61.0377 3.81941C61.0377 3.86078 61.0377 3.90561 61.0377 3.9539ZM67.2974 15.5097C68.6755 17.565 69.5101 18.8236 69.8013 19.2858H67.9962C67.7438 18.8582 67.2295 18.0788 66.4531 16.9477C65.9678 17.7271 65.468 18.2857 64.9537 18.6237C64.4393 18.9616 63.9249 19.1892 63.4106 19.3064C62.9059 19.4306 62.3236 19.4926 61.6637 19.4926C60.3438 19.4926 59.2762 19.1685 58.461 18.5202C57.6458 17.8719 57.2382 16.9822 57.2382 15.8511C57.2382 14.72 57.3983 13.882 57.7186 13.3372C58.0486 12.7923 58.3591 12.3129 58.6503 11.8991C58.9414 11.4853 59.844 10.6715 61.358 9.45766C59.7372 6.87819 58.9269 5.1781 58.9269 4.35737C58.9269 2.01931 60.3147 0.850281 63.0903 0.850281C64.711 0.850281 65.7737 1.15374 66.2784 1.76067C66.7927 2.3676 67.0499 3.21593 67.0499 4.30564C67.0499 5.39535 66.7103 6.34713 66.0309 7.16096C65.3613 7.96788 64.5169 8.81964 63.4979 9.71624C64.187 10.8474 65.1138 12.2681 66.2784 13.9786C67.0645 12.8061 67.9282 11.8267 68.8696 11.0405L69.8741 12.1475C69.0006 12.9199 68.1417 14.0406 67.2974 15.5097ZM65.3758 15.3959C63.9589 13.3682 62.9156 11.8474 62.246 10.8335C61.4308 11.606 60.7611 12.3888 60.237 13.182C59.713 13.9751 59.4461 14.8821 59.4364 15.9028C59.4364 17.434 60.2662 18.1995 61.9257 18.1995C62.838 18.1995 63.6047 17.8202 64.2258 17.0615C64.5363 16.6684 64.9197 16.1131 65.3758 15.3959Z" fill="white"/>
<path d="M90.2807 1.07788H92.7118V19.2858H90.7466V11.4853L91.0814 4.15046L87.4275 18.8926H85.3603L81.5754 4.15046L81.9102 11.4853V19.2858H79.9304V1.07788H82.3615L86.3939 16.3683L90.2807 1.07788Z" fill="white"/>
<path d="M98.89 3.76768H101.074V19.2858H98.89V3.76768ZM98.89 0.850281H101.059V2.34001H98.89V0.850281Z" fill="white"/>
<path d="M109.421 5.28844C109.615 4.82635 110.042 4.42633 110.702 4.08838C111.372 3.74353 112.158 3.57111 113.06 3.57111C113.963 3.57111 114.705 3.83664 115.288 4.3677C115.87 4.89876 116.161 5.69536 116.161 6.75749V19.2858H113.992V6.63334C113.992 6.03331 113.798 5.60225 113.41 5.34017C113.031 5.07119 112.522 4.9367 111.881 4.9367C110.241 4.9367 109.421 5.51259 109.421 6.66438V19.2858H107.252V3.76767H109.421V5.28844Z" fill="white"/>
<path d="M128.089 8.55758C128.089 7.22647 127.944 6.2954 127.653 5.76434C127.371 5.22638 126.818 4.9574 125.993 4.9574C125.168 4.9574 124.615 5.23327 124.334 5.78503C124.052 6.32988 123.911 7.2782 123.911 8.62999V14.7751C123.911 16.1959 124.067 17.1063 124.377 17.5064C124.697 17.9063 125.168 18.1064 125.789 18.1064C126.41 18.1064 126.852 18.0271 127.114 17.8684C127.386 17.7029 127.614 17.4305 127.798 17.0512C127.992 16.6649 128.089 15.9131 128.089 14.7958V8.55758ZM128.075 0.839935H130.258V19.2858H128.075V18.1064C127.57 18.9685 126.604 19.3995 125.178 19.3995C123.557 19.3926 122.528 18.7064 122.092 17.3408C121.849 16.589 121.728 15.5787 121.728 14.3096V8.85759C121.728 6.77473 122.077 5.37466 122.776 4.65738C123.484 3.9401 124.479 3.58146 125.76 3.58146C126.255 3.58146 126.711 3.70905 127.129 3.96424C127.556 4.21253 127.871 4.51599 128.075 4.87463V0.839935Z" fill="white"/>
<path fill-rule="evenodd" clip-rule="evenodd" d="M153.384 5.8169L159.709 10.3114C160.097 10.5873 160.097 11.0344 159.709 11.3102L153.384 15.8047C152.996 16.0805 152.367 16.0805 151.979 15.8047C151.591 15.5289 151.591 15.0817 151.979 14.8059L156.607 11.5171H139.13V10.1045H156.607L151.979 6.81568C151.591 6.53988 151.591 6.09271 151.979 5.8169C152.367 5.5411 152.996 5.5411 153.384 5.8169Z" fill="#EFC224"/>
<path d="M3.97516 10.1046H0V11.517H3.97516V10.1046Z" fill="#EFC224"/>
</g>
<defs>
<clipPath id="clip0_2_6">
<rect width="160" height="21.735" fill="white" transform="translate(0 0.839935)"/>
</clipPath>
</defs>
</svg>
